<?xml version="1.0" encoding="UTF-8" standalone="no" ?>
<!DOCTYPE svg PUBLIC "-//W3C//DTD SVG 1.1//EN" "http://www.w3.org/Graphics/SVG/1.1/DTD/svg11.dtd">
<svg xmlns="http://www.w3.org/2000/svg" xmlns:xlink="http://www.w3.org/1999/xlink" version="1.1" width="1080" height="1080" viewBox="0 0 1080 1080" xml:space="preserve">
<desc>Created with Fabric.js 5.2.4</desc>
<defs>
</defs>
<g transform="matrix(1 0 0 1 540 540)" id="8e6e09bc-9b25-4146-9d09-3288a75545e8"  >
<rect style="stroke: none; stroke-width: 1; stroke-dasharray: none; stroke-linecap: butt; stroke-dashoffset: 0; stroke-linejoin: miter; stroke-miterlimit: 4; fill: rgb(255,255,255); fill-rule: nonzero; opacity: 1; visibility: hidden;" vector-effect="non-scaling-stroke"  x="-540" y="-540" rx="0" ry="0" width="1080" height="1080" />
</g>
<g transform="matrix(1 0 0 1 540 540)" id="af42ffb4-867c-4351-8bf4-7c1f1d304e91"  >
</g>
<g transform="matrix(1 0 0 1 540 540)"  >
<g style="" vector-effect="non-scaling-stroke"   >
		<g transform="matrix(1.99 0 0 1.99 0 -144.57)"  >
<path style="stroke: none; stroke-width: 1; stroke-dasharray: none; stroke-linecap: butt; stroke-dashoffset: 0; stroke-linejoin: miter; stroke-miterlimit: 4; fill: rgb(255,255,255); fill-rule: nonzero; opacity: 1;" vector-effect="non-scaling-stroke"  transform=" translate(-201.08, -128.4)" d="M 201.08 49.778 C 162.286 49.778 130.72500000000002 81.339 130.72500000000002 120.13300000000001 C 130.72500000000002 138.961 138.15000000000003 160.32600000000002 150.58700000000002 177.28400000000002 C 164.65400000000002 196.46500000000003 182.58700000000002 207.02900000000002 201.08 207.02900000000002 C 219.574 207.02900000000002 237.50600000000003 196.46600000000004 251.574 177.28400000000002 C 264.011 160.32600000000002 271.43600000000004 138.961 271.43600000000004 120.13300000000001 C 271.436 81.339 239.874 49.778 201.08 49.778 z M 201.08 192.029 C 187.68400000000003 192.029 173.68900000000002 183.422 162.68300000000002 168.413 C 152.223 154.151 145.72500000000002 135.651 145.72500000000002 120.13300000000001 C 145.72500000000002 89.61000000000001 170.55700000000002 64.77800000000002 201.08 64.77800000000002 C 231.603 64.77800000000002 256.435 89.61000000000001 256.435 120.13300000000001 C 256.436 151.824 230.372 192.029 201.08 192.029 z" stroke-linecap="round" />
</g>
		<g transform="matrix(1.99 0 0 1.99 0 -69.2)"  >
<path style="stroke: none; stroke-width: 1; stroke-dasharray: none; stroke-linecap: butt; stroke-dashoffset: 0; stroke-linejoin: miter; stroke-miterlimit: 4; fill: rgb(255,255,255); fill-rule: nonzero; opacity: 1;" vector-effect="non-scaling-stroke"  transform=" translate(-201.08, -166.29)" d="M 201.08 0 C 109.387 0 34.788 74.598 34.788 166.292 C 34.788 257.985 109.386 332.584 201.07999999999998 332.584 C 292.774 332.584 367.37199999999996 257.986 367.37199999999996 166.292 C 367.372 74.598 292.773 0 201.08 0 z M 201.08 317.584 C 170.98100000000002 317.583 142.90900000000002 308.745 119.31700000000001 293.532 C 120.137 270.563 130.535 249.029 148.14100000000002 234.07799999999997 C 155.13700000000003 228.13699999999997 165.353 227.48799999999997 173.56300000000002 232.46299999999997 C 182.431 237.83699999999996 191.69000000000003 240.56199999999995 201.08300000000003 240.56199999999995 C 210.47400000000002 240.56199999999995 219.73000000000002 237.83799999999997 228.59400000000002 232.46699999999996 C 236.79500000000002 227.49699999999996 246.98400000000004 228.12199999999996 253.94700000000003 234.02199999999996 C 271.56600000000003 248.95199999999997 282.023 270.54799999999994 282.84200000000004 293.534 C 259.25 308.746 231.178 317.584 201.08 317.584 z M 296.981 283.218 C 293.742 259.735 281.96999999999997 238.10700000000003 263.644 222.57800000000003 C 251.75400000000002 212.50400000000002 234.544 211.32200000000003 220.82 219.63900000000004 C 207.846 227.50000000000003 194.314 227.49900000000005 181.337 219.63500000000005 C 167.59699999999998 211.30800000000005 150.356 212.51900000000006 138.43099999999998 222.64500000000004 C 120.12099999999998 238.19400000000005 108.39599999999999 259.76000000000005 105.16599999999998 283.208 C 71.37699999999998 255.43800000000002 49.78799999999998 213.34000000000003 49.78799999999998 166.293 C 49.788 82.869 117.658 15 201.08 15 C 284.50300000000004 15 352.372 82.869 352.372 166.292 C 352.372 213.345 330.778 255.448 296.981 283.218 z" stroke-linecap="round" />
</g>
		<g transform="matrix(1.99 0 0 1.99 0 315.88)"  >
<path style="stroke: none; stroke-width: 1; stroke-dasharray: none; stroke-linecap: butt; stroke-dashoffset: 0; stroke-linejoin: miter; stroke-miterlimit: 4; fill: rgb(255,255,255); fill-rule: nonzero; opacity: 1;" vector-effect="non-scaling-stroke"  transform=" translate(-201.08, -359.87)" d="M 302.806 352.372 L 99.354 352.372 C 95.212 352.372 91.854 355.73 91.854 359.872 C 91.854 364.014 95.212 367.372 99.354 367.372 L 302.806 367.372 C 306.948 367.372 310.306 364.014 310.306 359.872 C 310.307 355.73 306.948 352.372 302.806 352.372 z" stroke-linecap="round" />
</g>
		<g transform="matrix(1.99 0 0 1.99 0 385.08)"  >
<path style="stroke: none; stroke-width: 1; stroke-dasharray: none; stroke-linecap: butt; stroke-dashoffset: 0; stroke-linejoin: miter; stroke-miterlimit: 4; fill: rgb(255,255,255); fill-rule: nonzero; opacity: 1;" vector-effect="non-scaling-stroke"  transform=" translate(-201.08, -394.66)" d="M 302.806 387.161 L 99.354 387.161 C 95.212 387.161 91.854 390.519 91.854 394.661 C 91.854 398.803 95.212 402.161 99.354 402.161 L 302.806 402.161 C 306.948 402.161 310.306 398.803 310.306 394.661 C 310.307 390.519 306.948 387.161 302.806 387.161 z" stroke-linecap="round" />
</g>
</g>
</g>
</svg>